<svg data-v-423bf9ae="" xmlns="http://www.w3.org/2000/svg" viewBox="0 0 434 90" class="iconLeft"><!----><!----><!----><g data-v-423bf9ae="" id="66703ff7-74ec-4b89-80d7-9d4b7a2dc031" fill="#FFFFFF" transform="matrix(6.302521336710863,0,0,6.302521336710863,102.05882298412618,-34.60084362915964)"><path d="M2.66 13.36L2.66 16.02L6.51 16.02L6.51 17.18L1.26 17.18L1.26 8.43L6.47 8.43L6.30 9.59L2.66 9.59L2.66 12.25L5.98 12.25L5.98 13.36L2.66 13.36ZM7.67 13.22L7.67 13.22Q7.67 12.91 7.83 12.82L7.83 12.82L7.83 12.82Q7.98 12.74 8.39 12.74L8.39 12.74L11.65 12.74L11.65 13.44L11.65 13.44Q11.65 13.75 11.49 13.83L11.49 13.83L11.49 13.83Q11.34 13.92 10.93 13.92L10.93 13.92L7.67 13.92L7.67 13.22ZM12.96 15.90L12.96 15.90Q13.52 16.04 14.27 16.14L14.27 16.14L14.27 16.14Q15.02 16.23 15.71 16.23L15.71 16.23L15.71 16.23Q16.42 16.23 17.29 16.14L17.29 16.14L17.29 13.54L15.96 13.44L15.96 13.44Q14.67 13.34 14.03 13.11L14.03 13.11L14.03 13.11Q13.38 12.88 13.13 12.38L13.13 12.38L13.13 12.38Q12.87 11.89 12.87 10.95L12.87 10.95L12.87 10.95Q12.87 9.94 13.13 9.35L13.13 9.35L13.13 9.35Q13.38 8.75 13.96 8.48L13.96 8.48L13.96 8.48Q14.55 8.22 15.53 8.22L15.53 8.22L15.53 8.22Q16.94 8.22 18.35 8.48L18.35 8.48L18.17 9.59L18.17 9.59Q17.05 9.38 15.61 9.38L15.61 9.38L15.61 9.38Q14.90 9.38 14.39 9.45L14.39 9.45L14.39 12.08L15.95 12.18L15.95 12.18Q17.07 12.25 17.68 12.51L17.68 12.51L17.68 12.51Q18.30 12.77 18.56 13.31L18.56 13.31L18.56 13.31Q18.82 13.85 18.82 14.80L18.82 14.80L18.82 14.80Q18.82 15.78 18.51 16.34L18.51 16.34L18.51 16.34Q18.20 16.90 17.50 17.14L17.50 17.14L17.50 17.14Q16.80 17.39 15.58 17.39L15.58 17.39L15.58 17.39Q14.10 17.39 12.75 17.05L12.75 17.05L12.96 15.90ZM22.74 17.32L22.74 17.32Q21.70 17.32 21.17 17.01L21.17 17.01L21.17 17.01Q20.64 16.70 20.43 15.94L20.43 15.94L20.43 15.94Q20.22 15.18 20.22 13.68L20.22 13.68L20.22 13.68Q20.22 12.18 20.43 11.41L20.43 11.41L20.43 11.41Q20.64 10.64 21.17 10.34L21.17 10.34L21.17 10.34Q21.70 10.04 22.74 10.04L22.74 10.04L22.74 10.04Q23.31 10.04 23.93 10.11L23.93 10.11L23.93 10.11Q24.56 10.18 25.00 10.29L25.00 10.29L24.84 11.35L24.84 11.35Q23.83 11.14 22.89 11.14L22.89 11.14L22.89 11.14Q22.20 11.14 21.94 11.40L21.94 11.40L21.94 11.40Q21.67 11.66 21.67 12.32L21.67 12.32L21.67 16.06L21.67 16.06Q22.18 16.21 23.10 16.21L23.10 16.21L23.10 16.21Q23.55 16.21 23.97 16.14L23.97 16.14L23.97 16.14Q24.40 16.06 25.00 15.88L25.00 15.88L25.16 16.90L25.16 16.90Q24.68 17.09 24.04 17.21L24.04 17.21L24.04 17.21Q23.41 17.32 22.74 17.32L22.74 17.32ZM26.98 17.18L26.98 7.98L28.35 7.87L28.35 10.64L28.35 10.64Q28.80 10.33 29.34 10.19L29.34 10.19L29.34 10.19Q29.88 10.04 30.60 10.04L30.60 10.04L30.60 10.04Q31.58 10.04 32.09 10.34L32.09 10.34L32.09 10.34Q32.59 10.64 32.59 11.23L32.59 11.23L32.59 17.18L31.19 17.18L31.19 11.19L29.57 11.19L29.57 11.19Q28.88 11.19 28.63 11.35L28.63 11.35L28.63 11.35Q28.38 11.52 28.38 12.00L28.38 12.00L28.38 17.18L26.98 17.18ZM37.66 17.32L37.66 17.32Q36.40 17.32 35.76 17.02L35.76 17.02L35.76 17.02Q35.13 16.72 34.87 15.95L34.87 15.95L34.87 15.95Q34.62 15.18 34.62 13.68L34.62 13.68L34.62 13.68Q34.62 12.18 34.87 11.41L34.87 11.41L34.87 11.41Q35.13 10.64 35.76 10.34L35.76 10.34L35.76 10.34Q36.40 10.04 37.66 10.04L37.66 10.04L37.66 10.04Q38.93 10.04 39.56 10.34L39.56 10.34L39.56 10.34Q40.19 10.64 40.45 11.40L40.45 11.40L40.45 11.40Q40.70 12.17 40.70 13.68L40.70 13.68L40.70 13.68Q40.70 15.18 40.45 15.95L40.45 15.95L40.45 15.95Q40.19 16.72 39.56 17.02L39.56 17.02L39.56 17.02Q38.92 17.32 37.66 17.32L37.66 17.32ZM36.08 16.17L38.57 16.17L38.57 16.17Q38.98 16.17 39.11 16.10L39.11 16.10L39.11 16.10Q39.24 16.03 39.24 15.82L39.24 15.82L39.24 11.19L36.75 11.19L36.75 11.19Q36.34 11.19 36.21 11.26L36.21 11.26L36.21 11.26Q36.08 11.33 36.08 11.54L36.08 11.54L36.08 16.17ZM45.42 17.32L45.42 17.32Q44.16 17.32 43.52 17.02L43.52 17.02L43.52 17.02Q42.88 16.72 42.63 15.95L42.63 15.95L42.63 15.95Q42.38 15.18 42.38 13.68L42.38 13.68L42.38 13.68Q42.38 12.18 42.63 11.41L42.63 11.41L42.63 11.41Q42.88 10.64 43.52 10.34L43.52 10.34L43.52 10.34Q44.16 10.04 45.42 10.04L45.42 10.04L45.42 10.04Q46.69 10.04 47.32 10.34L47.32 10.34L47.32 10.34Q47.95 10.64 48.20 11.40L48.20 11.40L48.20 11.40Q48.45 12.17 48.45 13.68L48.45 13.68L48.45 13.68Q48.45 15.18 48.20 15.95L48.20 15.95L48.20 15.95Q47.95 16.72 47.31 17.02L47.31 17.02L47.31 17.02Q46.68 17.32 45.42 17.32L45.42 17.32ZM43.83 16.17L46.33 16.17L46.33 16.17Q46.73 16.17 46.86 16.10L46.86 16.10L46.86 16.10Q47.00 16.03 47.00 15.82L47.00 15.82L47.00 11.19L44.51 11.19L44.51 11.19Q44.10 11.19 43.97 11.26L43.97 11.26L43.97 11.26Q43.83 11.33 43.83 11.54L43.83 11.54L43.83 16.17ZM51.88 16.14L51.88 16.14Q52.16 16.18 52.53 16.21L52.53 16.21L52.44 17.16L52.44 17.16Q51.93 17.32 51.52 17.32L51.52 17.32L51.52 17.32Q50.99 17.32 50.74 17.06L50.74 17.06L50.74 17.06Q50.48 16.80 50.48 16.27L50.48 16.27L50.48 8.08L51.88 7.87L51.88 16.14Z"></path></g><!----><g data-v-423bf9ae="" id="2b74bc8c-4558-47a2-8c6e-8388ae68fcdc" transform="matrix(2.8125,0,0,2.8125,0,0)" stroke="none" fill="#88DF95"><path d="M9.571 20.464l8.064 4.47 8.065-4.47v-8.939l-8.065-4.469-8.064 4.469z"></path><path d="M32 0H0v32h32l-5.054-5.172H5.054V5.172h21.892z"></path></g><!----></svg>